<?xml version="1.0" encoding="UTF-8"?>
<svg id="Layer_1" xmlns="http://www.w3.org/2000/svg" version="1.1" viewBox="0 0 3707 505">
  <!-- Generator: Adobe Illustrator 29.6.0, SVG Export Plug-In . SVG Version: 2.1.1 Build 207)  -->
  <defs>
    <style>
      .st0 {
        fill: #15327d;
      }
    </style>
  </defs>
  <path class="st0" d="M0,497.16L.52,21.35h439.34v25.96H91v188.08h292.65v25.61H91v236.15H0Z"/>
  <path class="st0" d="M890.84,497.16h-92.23V21.35h92.23v475.81Z"/>
  <path class="st0" d="M1337.88,21.35h52.07l427.47,356.83V21.35h38.61v483.52l-11.86.04-460.92-383.08v375.33h-45.37V21.35Z"/>
  <path class="st0" d="M2799.51,117.16l-15.99,7.03c-41.6-39.45-79.77-65.73-114.48-78.87-35.77-13.61-76.16-20.42-121.19-20.42-101.76,0-173.08,33.6-214,100.79-21.66,35.11-32.49,78.78-32.49,130.99,0,89.44,40.74,151,122.21,184.71,40.57,16.86,86.97,25.29,139.22,25.29s97.98-9,136.13-27.01c29.91-14.03,62.72-37.9,98.49-71.58l15.99,7.02c-67.73,81.63-164.16,122.46-289.29,122.46-115.85,0-205.57-29.24-269.17-87.71-47.43-43.51-71.16-94.74-71.16-153.68,0-46.31,14.78-89,44.34-128.07,31.28-40.93,75.28-72.76,132.01-95.45,54.66-21.75,114.48-32.64,179.45-32.64,52.61,0,98.32,8.08,137.18,24.22,46.73,19.64,87.66,50.65,122.73,92.98l.02-.04Z"/>
  <path class="st0" d="M3367.14,10.48h18.03l321.25,486.68h-130.26l-22.14-40.77c-2.43-4.67-12.7-21.35-30.78-50.07l-42.37-68.47h-270.5l-100.91,159.35-52.24-.04L3367.14,10.48ZM3466.56,311.89l-118.4-192.2-121.82,192.2h240.22Z"/>
</svg>